<svg width="18" height="18" viewBox="0 0 18 18" fill="none" xmlns="http://www.w3.org/2000/svg">
<path d="M16.7697 6.2025L16.5522 4.125C16.2372 1.86 15.2097 0.9375 13.0123 0.9375H11.2422H10.1323H7.85227H6.74224H4.94224C2.73724 0.9375 1.71724 1.86 1.39474 4.1475L1.19224 6.21C1.11724 7.0125 1.33474 7.7925 1.80724 8.4C2.37724 9.1425 3.25474 9.5625 4.22974 9.5625C5.17474 9.5625 6.08224 9.09 6.65224 8.3325C7.16224 9.09 8.03227 9.5625 8.99977 9.5625C9.9672 9.5625 10.8148 9.1125 11.3322 8.3625C11.9098 9.105 12.8022 9.5625 13.7322 9.5625C14.7297 9.5625 15.6297 9.12 16.1922 8.34C16.6422 7.74 16.8448 6.9825 16.7697 6.2025Z" fill="white"/>
<path d="M8.51183 12.4952C7.55933 12.5927 6.83936 13.4027 6.83936 14.3627V16.4177C6.83936 16.6202 7.00436 16.7852 7.20686 16.7852H10.7843C10.9868 16.7852 11.1518 16.6202 11.1518 16.4177V14.6252C11.1593 13.0577 10.2368 12.3152 8.51183 12.4952Z" fill="white"/>
<path d="M16.0282 10.7986V13.0336C16.0282 15.1036 14.3482 16.7836 12.2782 16.7836C12.0757 16.7836 11.9107 16.6186 11.9107 16.4161V14.6236C11.9107 13.6636 11.6182 12.9136 11.0482 12.4036C10.5457 11.9461 9.86318 11.7211 9.01568 11.7211C8.82818 11.7211 8.64068 11.7286 8.43818 11.7511C7.10315 11.8861 6.09064 13.0111 6.09064 14.3611V16.4161C6.09064 16.6186 5.92565 16.7836 5.72315 16.7836C3.65314 16.7836 1.97314 15.1036 1.97314 13.0336V10.8136C1.97314 10.2886 2.49064 9.93609 2.97814 10.1086C3.18064 10.1761 3.38314 10.2286 3.59314 10.2586C3.68314 10.2736 3.78064 10.2886 3.87064 10.2886C3.99064 10.3036 4.11064 10.3111 4.23064 10.3111C5.10065 10.3111 5.95565 9.98859 6.63065 9.43359C7.27565 9.98859 8.11568 10.3111 9.00068 10.3111C9.89318 10.3111 10.7182 10.0036 11.3632 9.44859C12.0382 9.99609 12.8782 10.3111 13.7332 10.3111C13.8682 10.3111 14.0032 10.3036 14.1307 10.2886C14.2207 10.2811 14.3032 10.2736 14.3857 10.2586C14.6182 10.2286 14.8282 10.1611 15.0382 10.0936C15.5257 9.92859 16.0282 10.2886 16.0282 10.7986Z" fill="white"/>
</svg>
